<?xml version="1.0" encoding="UTF-8" standalone="no"?>
<!-- Created with Inkscape (http://www.inkscape.org/) -->

<svg
   width="646.35553"
   height="646.35553"
   viewBox="0 0 171.0149 171.01491"
   version="1.1"
   id="svg1"
   xmlns:xlink="http://www.w3.org/1999/xlink"
   xmlns="http://www.w3.org/2000/svg"
   xmlns:svg="http://www.w3.org/2000/svg">
  <defs
     id="defs1">
    <clipPath
       clipPathUnits="userSpaceOnUse"
       id="clipPath36-1-4">
      <path
         d="M 0,160 H 160 V 0 H 0 Z"
         transform="translate(-97.348,-124.995)"
         id="path36-7-5" />
    </clipPath>
  </defs>
  <g
     id="layer1"
     transform="translate(19.361618,19.361618)">
    <ellipse
       style="display:none;fill:none;stroke:#000000;stroke-width:0.7884;stroke-linecap:round;stroke-linejoin:round;stroke-opacity:1"
       id="ellipse2"
       cx="-11.436612"
       cy="92.842598"
       rx="77.233795"
       ry="77.23381"
       transform="matrix(-0.78825223,0.61535227,0.61535227,0.78825223,0,0)" />
    <ellipse
       style="display:none;fill:none;stroke:#000000;stroke-width:0.7884;stroke-linecap:round;stroke-linejoin:round;stroke-opacity:1"
       id="path1"
       cx="62.32571"
       cy="69.757072"
       rx="77.233795"
       ry="77.23381"
       transform="rotate(-3.2202342)" />
    <text
       xml:space="preserve"
       style="font-weight:bold;font-size:11.8752px;line-height:0;font-family:verdana;-inkscape-font-specification:'verdana Bold';text-align:start;writing-mode:lr-tb;direction:ltr;text-anchor:start;fill:#d6c17c;fill-opacity:1;stroke:none;stroke-width:0.740833;stroke-linecap:round;stroke-linejoin:round;stroke-opacity:1"
       id="text1"
       transform="matrix(-0.83095606,0.46173472,-0.46173472,-0.83095606,151.80941,89.296614)"><textPath
         xlink:href="#path1"
         id="textPath1"
         style="font-style:normal;font-variant:normal;font-weight:normal;font-stretch:normal;font-size:11.8752px;line-height:0;font-family:verdana;-inkscape-font-specification:verdana;fill:#d6c17c;fill-opacity:1">●  Center for Pharmaceutical Data Science Education  ●</textPath></text>
    <text
       xml:space="preserve"
       style="font-style:normal;font-variant:normal;font-weight:bold;font-stretch:normal;font-size:11.2889px;line-height:0;font-family:verdana;-inkscape-font-specification:'verdana Bold';text-align:start;writing-mode:lr-tb;direction:ltr;text-anchor:start;fill:#d6c17c;fill-opacity:1;stroke:none;stroke-width:2.645;stroke-linecap:round;stroke-linejoin:round;stroke-dasharray:none;stroke-opacity:1"
       id="text3"
       transform="translate(0,3.1750001)"><textPath
         xlink:href="#ellipse2"
         id="textPath3"
         style="font-size:11.2889px;fill:#d6c17c;fill-opacity:1">People, Data, &amp; Drugs</textPath></text>
  </g>
  <g
     id="g31"
     style="display:inline;stroke:#d6c17c;stroke-width:2.79957;stroke-dasharray:none;stroke-opacity:1"
     transform="matrix(0.90001007,0,0,0.90001007,6.1362419,20.112387)">
    <circle
       style="display:none;fill:none;stroke:#d6c17c;stroke-width:2.79957;stroke-dasharray:none;stroke-opacity:1"
       id="circle3"
       cx="121.75481"
       cy="56.678959"
       r="54.387882" />
    <circle
       style="display:none;fill:none;stroke:#d6c17c;stroke-width:2.79957;stroke-dasharray:none;stroke-opacity:1"
       id="circle4"
       cx="121.75481"
       cy="56.678959"
       r="62.283211" />
    <path
       style="display:none;fill:none;fill-opacity:1;stroke:#d6c17c;stroke-width:3.37296;stroke-dasharray:none;stroke-opacity:1"
       id="path4"
       d="m -69.02336,-11.415558 -12.170205,-21.079411 -12.170203,-21.079409 24.340407,-10e-7 24.340406,-10e-7 -12.170203,21.079412 z"
       transform="matrix(0.83000305,0,0,0.83000305,145.73629,108.41309)" />
    <g
       id="g6"
       transform="translate(-45.830027,-15.400374)"
       style="display:none;stroke:#d6c17c;stroke-width:2.79957;stroke-dasharray:none;stroke-opacity:1">
      <circle
         style="display:inline;fill:none;stroke:#d6c17c;stroke-width:2.79957;stroke-dasharray:none;stroke-opacity:1"
         id="circle5"
         cx="121.75481"
         cy="56.678959"
         r="54.387882" />
      <circle
         style="display:inline;fill:none;stroke:#d6c17c;stroke-width:2.79957;stroke-dasharray:none;stroke-opacity:1"
         id="circle6"
         cx="121.75481"
         cy="56.678959"
         r="62.283211" />
    </g>
    <g
       id="g10"
       style="display:none;stroke:#d6c17c;stroke-width:2.79957;stroke-dasharray:none;stroke-opacity:1">
      <rect
         style="fill:#c79500;fill-opacity:1;stroke:#d6c17c;stroke-width:2.79957;stroke-linecap:round;stroke-dasharray:none;stroke-opacity:1"
         id="rect6"
         width="1.7712177"
         height="6.8880687"
         x="-110.09877"
         y="67.862877"
         transform="rotate(-135.17687)" />
      <rect
         style="fill:#c79500;fill-opacity:1;stroke:#d6c17c;stroke-width:2.79957;stroke-linecap:round;stroke-dasharray:none;stroke-opacity:1"
         id="rect7"
         width="1.7712177"
         height="6.8880687"
         x="86.078438"
         y="-110.43011"
         transform="rotate(65.577442)" />
      <rect
         style="fill:#c79500;fill-opacity:1;stroke:#d6c17c;stroke-width:2.79957;stroke-linecap:round;stroke-dasharray:none;stroke-opacity:1"
         id="rect8"
         width="1.7712177"
         height="6.8880687"
         x="30.356895"
         y="-144.27371"
         transform="rotate(97.231498)" />
      <rect
         style="fill:#c79500;fill-opacity:1;stroke:#d6c17c;stroke-width:2.79957;stroke-linecap:round;stroke-dasharray:none;stroke-opacity:1"
         id="rect9"
         width="1.7712177"
         height="6.8880687"
         x="-46.132729"
         y="-139.85658"
         transform="rotate(133.01911)" />
      <rect
         style="fill:#c79500;fill-opacity:1;stroke:#d6c17c;stroke-width:2.79957;stroke-linecap:round;stroke-dasharray:none;stroke-opacity:1"
         id="rect10"
         width="1.7712177"
         height="6.8880687"
         x="-124.74393"
         y="-58.834255"
         transform="rotate(-175.93862)" />
    </g>
    <g
       id="g30"
       transform="translate(3.870211,-2.9686342)"
       style="stroke:#d6c17c;stroke-width:2.79957;stroke-dasharray:none;stroke-opacity:1">
      <g
         id="g15"
         transform="rotate(-116.30281,84.604001,79.311184)"
         style="stroke:#d6c17c;stroke-width:2.79957;stroke-dasharray:none;stroke-opacity:1">
        <path
           style="fill:none;stroke:#d6c17c;stroke-width:2.79957;stroke-linecap:round;stroke-dasharray:none;stroke-opacity:1"
           id="path10"
           d="M 87.625006,99.025133 A 54.387882,54.387882 0 0 1 75.803347,85.773719" />
        <path
           style="display:inline;fill:none;stroke:#d6c17c;stroke-width:2.79957;stroke-linecap:round;stroke-dasharray:none;stroke-opacity:1"
           id="path11"
           d="M 81.655267,104.33633 A 62.283211,62.283211 0 0 1 59.472214,56.401364 62.283211,62.283211 0 0 1 82.081672,8.6660366" />
        <path
           style="fill:none;stroke:#d6c17c;stroke-width:2.79957;stroke-linecap:round;stroke-dasharray:none;stroke-opacity:1"
           id="path12"
           d="M 67.823995,63.715245 A 54.387882,54.387882 0 0 1 82.706241,18.820654" />
        <path
           style="fill:none;stroke:#d6c17c;stroke-width:2.79957;stroke-linecap:round;stroke-dasharray:none;stroke-opacity:1"
           id="path13"
           d="M 141.31967,107.42596 A 54.387882,54.387882 0 0 1 94.20601,103.57358" />
        <path
           style="display:inline;fill:none;stroke:#d6c17c;stroke-width:2.79957;stroke-linecap:round;stroke-dasharray:none;stroke-opacity:1"
           id="path14"
           d="M 121.2618,118.96022 A 62.283211,62.283211 0 0 1 88.251143,109.18327" />
        <path
           style="display:inline;fill:none;stroke:#d6c17c;stroke-width:2.79957;stroke-linecap:round;stroke-dasharray:none;stroke-opacity:1"
           id="path15"
           d="m 150.46416,111.95075 a 62.283211,62.283211 0 0 1 -19.16378,6.27559" />
        <circle
           style="display:none;fill:#780000;fill-opacity:0.160183;stroke:#d6c17c;stroke-width:2.79957;stroke-linecap:round;stroke-dasharray:none;stroke-dashoffset:0;stroke-opacity:1"
           id="circle15"
           cx="121.75481"
           cy="56.678959"
           r="54.387882" />
      </g>
      <g
         id="g20"
         transform="rotate(121.36659,85.346644,77.648961)"
         style="stroke:#d6c17c;stroke-width:2.79957;stroke-dasharray:none;stroke-opacity:1">
        <path
           style="fill:none;stroke:#d6c17c;stroke-width:2.79957;stroke-linecap:round;stroke-dasharray:none;stroke-opacity:1"
           id="path16"
           d="m 139.26288,108.17176 a 54.387882,54.387882 0 0 1 -47.162791,-5.9007" />
        <path
           style="display:inline;fill:none;stroke:#d6c17c;stroke-width:2.79957;stroke-linecap:round;stroke-dasharray:none;stroke-opacity:1"
           id="path17"
           d="M 60.074181,48.036112 A 62.283211,62.283211 0 0 1 84.009933,7.1358175" />
        <path
           style="display:inline;fill:none;stroke:#d6c17c;stroke-width:2.79957;stroke-linecap:round;stroke-dasharray:none;stroke-opacity:1"
           id="path18"
           d="M 148.19484,113.07154 A 62.283211,62.283211 0 0 1 85.945847,107.63891" />
        <path
           style="display:inline;fill:none;stroke:#d6c17c;stroke-width:2.79957;stroke-linecap:round;stroke-dasharray:none;stroke-opacity:1"
           id="path19"
           d="M 79.582954,102.51271 A 62.283211,62.283211 0 0 1 59.608019,60.79905" />
        <path
           style="fill:none;stroke:#d6c17c;stroke-width:2.79957;stroke-linecap:round;stroke-dasharray:none;stroke-opacity:1"
           id="path20"
           d="M 85.744215,97.43775 A 54.387882,54.387882 0 0 1 67.376933,57.722327 54.387882,54.387882 0 0 1 84.207189,17.331555" />
        <circle
           style="display:none;fill:#780000;fill-opacity:0.160183;stroke:#d6c17c;stroke-width:2.79957;stroke-linecap:round;stroke-dasharray:none;stroke-dashoffset:0;stroke-opacity:1"
           id="circle20"
           cx="121.75481"
           cy="56.678959"
           r="54.387882" />
      </g>
      <g
         id="g22"
         style="stroke:#d6c17c;stroke-width:2.79957;stroke-dasharray:none;stroke-opacity:1">
        <path
           style="fill:none;fill-opacity:1;stroke:#d6c17c;stroke-width:2.79957;stroke-linecap:round;stroke-dasharray:none;stroke-opacity:1"
           d="M 66.391587,85.391633 C 61.042139,91.759839 84.440633,100.2698 94.285268,84.348394"
           id="path21" />
        <path
           style="fill:none;fill-opacity:1;stroke:#d6c17c;stroke-width:2.79957;stroke-linecap:round;stroke-dasharray:none;stroke-opacity:1"
           d="m 63.012152,77.85957 c -6.018791,3.584262 -5.963866,10.402992 -3.781128,14.75598 2.667699,5.320134 8.930342,7.92915 16.352494,8.54655 8.340725,0.69381 17.163926,-2.183021 21.755129,-7.310328"
           id="path22" />
      </g>
      <g
         id="g24"
         transform="translate(-1,9.375)"
         style="stroke:#d6c17c;stroke-width:2.79957;stroke-dasharray:none;stroke-opacity:1">
        <path
           id="path23"
           d="M 0,0 C 0.376,-2.827 -2.45,-3.072 -1.989,0 Z"
           style="display:inline;fill:#d6c17c;fill-opacity:1;fill-rule:nonzero;stroke:none;stroke-width:2.2467;stroke-dasharray:none;stroke-opacity:1"
           transform="matrix(1.2460804,0,0,-1.2460804,111.98737,11.750429)"
           clip-path="url(#clipPath36-1-4)" />
        <path
           style="fill:none;fill-opacity:1;stroke:#d6c17c;stroke-width:2.79957;stroke-linecap:round;stroke-dasharray:none;stroke-opacity:1"
           d="m 114.11246,55.065713 c 9.52186,4.646111 22.53028,-11.679665 7.23799,-30.123422 -1.34409,-1.296638 -3.2898,-0.990855 -5.72085,-1.158784 -7.09657,-0.490208 -15.61624,-7.207529 -16.78018,-10.518133 -0.66709,-1.52912 0.17503,-2.680304 3.72281,-3.039522 3.13874,-0.317803 4.60889,-1.466874 9.29399,-1.47094 5.5804,-0.0048 9.76536,2.613759 12.44449,6.746138 0.85807,1.323513 1.49944,2.589597 2.45179,3.930786 10.34925,11.770091 10.74304,23.570406 7.4506,31.817094 -3.52137,8.820112 -13.49121,15.794677 -22.07456,11.725358"
           id="path24" />
      </g>
      <g
         id="g29"
         transform="translate(-0.37109334,-0.55664001)"
         style="display:inline;stroke:#d6c17c;stroke-width:2.79957;stroke-dasharray:none;stroke-opacity:1">
        <path
           style="fill:none;stroke:#d6c17c;stroke-width:2.79957;stroke-linecap:round;stroke-dasharray:none;stroke-opacity:1"
           id="path25"
           d="M 81.879039,93.664969 A 54.387882,54.387882 0 0 1 67.412284,54.458147 54.387882,54.387882 0 0 1 85.029979,16.562518" />
        <path
           style="display:inline;fill:none;stroke:#d6c17c;stroke-width:2.79957;stroke-linecap:round;stroke-dasharray:none;stroke-opacity:1"
           id="path26"
           d="M 70.980622,92.75084 A 62.283211,62.283211 0 0 1 85.045683,6.3635678" />
        <g
           id="g28"
           style="display:inline;stroke:#d6c17c;stroke-width:2.79957;stroke-dasharray:none;stroke-opacity:1">
          <path
             style="fill:none;stroke:#d6c17c;stroke-width:2.79957;stroke-linecap:round;stroke-dasharray:none;stroke-opacity:1"
             id="path27"
             d="M 137.81821,108.64057 A 54.387882,54.387882 0 0 1 91.203741,101.67534" />
          <path
             style="display:inline;fill:none;stroke:#d6c17c;stroke-width:2.79957;stroke-linecap:round;stroke-dasharray:none;stroke-opacity:1"
             id="path28"
             d="M 146.61741,113.78456 A 62.283211,62.283211 0 0 1 84.930512,106.91012" />
        </g>
        <circle
           style="display:none;fill:#780000;fill-opacity:0.160183;stroke:#d6c17c;stroke-width:2.79957;stroke-linecap:round;stroke-dasharray:none;stroke-dashoffset:0;stroke-opacity:1"
           id="circle28"
           cx="121.75481"
           cy="56.678959"
           r="54.387882" />
      </g>
    </g>
  </g>
</svg>
